# xmcd
#
# Track frame offsets: 
#        150
#        50053
#        70878
#        113297
#        140997
#        170183
#        220196
#        249374
#        285260
#        317725
#        330008
#        351597
#        367929
#
# Disc length: 5018 seconds
#
# Revision: 1
# Processed by: cddbd v1.5.2PL0 Copyright (c) Steve Scherf et al.
# Submitted via: ExactAudioCopy v1.3
#
DISCID=c913980d
DTITLE=Various Artist - Piano Sonatas Nos. 21-25
DYEAR=1900
DGENRE=Classical
TTITLE0=Emil Gilels - Sonata No. 21 in C, I Allegro con brio
TTITLE1=Emil Gilels - Sonata No. 21 in C, II Introduzione. Adagio molt
TTITLE1=o -
TTITLE2=Emil Gilels - Sonata No. 21 in C, III Rondo. Allegretto modera
TTITLE2=to - Prestissimo
TTITLE3=Alfred Brendel - Sonata No. 22 in F, I In tempo d'un menuetto
TTITLE4=Alfred Brendel - Sonata No. 22 in F, Allegretto
TTITLE5=Emil Gilels - Sonata No. 23 in f, I Allegro assai
TTITLE6=Emil Gilels - Sonata No. 23 in f, II Andanta con moto
TTITLE7=Emil Gilels - Sonata No. 23 in f, III Allegro ma non troppo
TTITLE8=Vladimir Ashkenazy - Sonata No. 24 in F#, I Adagio cantabile -
TTITLE8=Allegro ma non troppo
TTITLE9=Vladimir Ashkenazy - Sonata No. 24 in F#, II Allegro vivace
TTITLE10=Emil Gilels - Sonata No. 25 in G, I Presto alla tedesca
TTITLE11=Emil Gilels - Sonata No. 25 in G, II Andante 
TTITLE12=Emil Gilels - Sonata No. 25 in G, III Vivace
EXTD=
EXTT0=
EXTT1=
EXTT2=
EXTT3=
EXTT4=
EXTT5=
EXTT6=
EXTT7=
EXTT8=
EXTT9=
EXTT10=
EXTT11=
EXTT12=
PLAYORDER=
